<?xml version='1.0' encoding='utf-8'?>
<svg xmlns="http://www.w3.org/2000/svg" width="1920" height="1080" viewBox="0 0 1920 1080" data-theme="light">
  <style>
        @font-face {
            font-family: 'Inter';
            src: url('assets/fonts/Inter-Regular.ttf') format('truetype');
            font-weight: 400;
            font-style: normal;
            font-display: swap;
        }
        @font-face {
            font-family: 'Inter';
            src: url('assets/fonts/Inter-Bold.ttf') format('truetype');
            font-weight: 600;
            font-style: normal;
            font-display: swap;
        }
        @font-face {
            font-family: 'Inter';
            src: url('assets/fonts/Inter-Bold.ttf') format('truetype');
            font-weight: 800;
            font-style: normal;
            font-display: swap;
        }
        
:root {
    --background: #f8fafc;
    --panel: #ffffff;
    --primary-text: #0f172a;
    --muted-text: #64748b;
    --inverse-text: #ffffff;
    --border: #e2e8f0;
    --shadow-color: #000000;
    --icon-pad-bg: #1e293b;
    --art-glow: #0891b2;
    --art-glow-opacity: 0.10;
    --art-sheen: #ffffff;
    --art-sheen-opacity: 0.34;
    --art-shadow: #0f172a;
    --art-shadow-opacity: 0.14;
    --art-muted-line: #94a3b8;
    --art-panel-tint: #f1f5f9;
    --font-family: 'Inter', 'Segoe UI', 'Kalam', Roboto, Helvetica, Arial, sans-serif;
    --radius-xl: 16px;
    --font-family-headline: 'Inter', 'Segoe UI', 'Kalam', Roboto, Helvetica, Arial, sans-serif;
    --font-family-body: 'Inter', 'Segoe UI', 'Kalam', Roboto, Helvetica, Arial, sans-serif;
    --font-heading: 'Inter', 'Segoe UI', 'Kalam', Roboto, Helvetica, Arial, sans-serif;
    --font-body: 'Inter', 'Segoe UI', 'Kalam', Roboto, Helvetica, Arial, sans-serif;
    --font-size-h1: 56px;
    --font-size-h2: 40px;
    --font-size-h3: 28px;
    --font-size-body: 24px;
    --font-size-caption: 18px;
    --secondary-text: var(--muted-text);
    --panel-border: var(--border);
    --font-weight-normal: 400;
    --font-weight-medium: 500;
    --font-weight-semibold: 600;
    --font-weight-bold: 700;
    --spacing-gutter-pct: 0.07;
    --spacing-top-pct: 0.15;
    --spacing-bottom-pct: 0.07;
    --spacing-title-y-pct: 0.055;
    --accent-1: #0891b2;
    --accent-2: #db2777;
    --accent-3: #ca8a04;
    --accent-4: #65a30d;
    --accent-5: #ea580c;
    --accent-6: #9333ea;
}
:root[data-theme="dark"] {
    --background: #0f172a;
    --panel: #1e293b;
    --primary-text: #f1f5f9;
    --muted-text: #94a3b8;
    --inverse-text: #0f172a;
    --border: #334155;
    --shadow-color: #000000;
    --icon-pad-bg: #1e293b;
    --art-glow: #7dd3fc;
    --art-glow-opacity: 0.18;
    --art-sheen: #ffffff;
    --art-sheen-opacity: 0.18;
    --art-shadow: #000000;
    --art-shadow-opacity: 0.28;
    --art-muted-line: #64748b;
    --art-panel-tint: #1e293b;
    --accent-1: #22d3ee;
    --accent-2: #f472b6;
    --accent-3: #facc15;
    --accent-4: #a3e635;
    --accent-5: #fb923c;
    --accent-6: #c084fc;
}
:root[data-theme="light"] {
    --background: #f8fafc;
    --panel: #ffffff;
    --primary-text: #0f172a;
    --muted-text: #64748b;
    --inverse-text: #ffffff;
    --border: #e2e8f0;
    --shadow-color: #000000;
    --icon-pad-bg: #1e293b;
    --art-glow: #0891b2;
    --art-glow-opacity: 0.10;
    --art-sheen: #ffffff;
    --art-sheen-opacity: 0.34;
    --art-shadow: #0f172a;
    --art-shadow-opacity: 0.14;
    --art-muted-line: #94a3b8;
    --art-panel-tint: #f1f5f9;
    --accent-1: #0891b2;
    --accent-2: #db2777;
    --accent-3: #ca8a04;
    --accent-4: #65a30d;
    --accent-5: #ea580c;
    --accent-6: #9333ea;
}</style>
  <rect x="0" y="0" width="1.92E+3" height="1.08E+3" fill="#252a34" stroke="none" id="programmatic_background"/>
  <line id="HEADER_DECOR" x1="960.0" x2="1080.0" y1="85.0" y2="85.0" stroke="var(--accent-1)" stroke-width="6" stroke-linecap="round"/>
  <defs>
    <pattern id="svg342edd46-napkin-hatch" patternUnits="userSpaceOnUse" width="12" height="12">
      <path d="M -3 12 L 12 -3 M 0 15 L 15 0" fill="none" stroke="var(--primary-text)" stroke-width="1" stroke-opacity="0.05"/>
    </pattern>
    <radialGradient id="svg342edd46-universal-edge-vignette" cx="50%" cy="50%" r="72%">
      <stop offset="0%" stop-color="var(--background)" stop-opacity="0"/>
      <stop offset="72%" stop-color="var(--background)" stop-opacity="0.12"/>
      <stop offset="100%" stop-color="var(--primary-text)" stop-opacity="0.08"/>
    </radialGradient>
    <linearGradient id="svg342edd46-universal-surface-sheen" x1="0%" y1="0%" x2="100%" y2="100%">
      <stop offset="0%" stop-color="var(--art-sheen)" stop-opacity="var(--art-sheen-opacity)"/>
      <stop offset="46%" stop-color="var(--art-sheen)" stop-opacity="0.035"/>
      <stop offset="100%" stop-color="var(--art-panel-tint)" stop-opacity="0.14"/>
    </linearGradient>
    <radialGradient id="svg342edd46-universal-icon-aura" cx="50%" cy="42%" r="64%">
      <stop offset="0%" stop-color="var(--art-glow)" stop-opacity="var(--art-glow-opacity)"/>
      <stop offset="100%" stop-color="var(--background)" stop-opacity="0"/>
    </radialGradient>
    <radialGradient id="svg342edd46-orbit-core-glow" cx="50%" cy="50%" r="62%">
      <stop offset="0%" stop-color="var(--inverse-text)" stop-opacity="0.16"/>
      <stop offset="100%" stop-color="var(--background)" stop-opacity="0"/>
    </radialGradient>
    <linearGradient id="svg342edd46-orbit-ring-sheen" x1="0%" y1="0%" x2="100%" y2="100%">
      <stop offset="0%" stop-color="var(--inverse-text)" stop-opacity="0.20"/>
      <stop offset="100%" stop-color="var(--background)" stop-opacity="0"/>
    </linearGradient>
    <filter id="svg342edd46-text-glow" x="-20%" y="-20%" width="140%" height="140%">
      <feDropShadow dx="0" dy="0" stdDeviation="2" flood-color="#000000" flood-opacity="0.4"/>
    </filter>
    <filter id="svg342edd46-shadow" x="-30%" y="-30%" width="160%" height="160%">
      <feDropShadow dx="0" dy="2" stdDeviation="3" flood-color="#000000" flood-opacity="0.08"/>
      <feDropShadow dx="0" dy="6" stdDeviation="10" flood-color="#000000" flood-opacity="0.12"/>
    </filter>
    <marker id="svg342edd46-arrowhead" markerWidth="10" markerHeight="7" refX="9" refY="3.5" orient="auto" markerUnits="strokeWidth">
      <polygon points="0 0, 10 3.5, 0 7" fill="var(--muted-text)" opacity="0.6"/>
    </marker>
  </defs>
  <rect width="100%" height="100%" fill="var(--background)" id="CANVAS_BG"/>
  <rect width="100%" height="100%" fill="url(#svg342edd46-napkin-hatch)"/>
  <rect id="UNIVERSAL_EDGE_VIGNETTE" width="100%" height="100%" fill="url(#svg342edd46-universal-edge-vignette)" opacity="0.62"/>
  <text id="TITLE" x="960.0" y="59" text-anchor="middle" font-weight="800" font-size="48" fill="#0f172a" style="font-size: 60px; font-family: Inter, Segoe UI, Kalam, Roboto, Helvetica, Arial, sans-serif; font-weight: 700; letter-spacing:-1.2px;" data-final-font-size="60">
    <tspan x="960.0" dy="68.00px">Geographical Ambiguity of SIAI-Marchetti Sites</tspan>
  </text>
  <rect id="TITLE_FRAME" x="134" y="25" width="1652" height="70" fill="none"/>
  <g transform="translate(960, 580) scale(0.90)">
    <circle id="ORBIT_ART_CORE_GLOW" cx="0" cy="0" r="430" fill="url(#svg342edd46-orbit-core-glow)" opacity="0.84"/>
    <ellipse cx="0" cy="0" rx="200.0" ry="200.0" fill="none" stroke="var(--muted-text)" stroke-width="2" stroke-dasharray="6 3" opacity="0.3"/>
    <ellipse id="ORBIT_ART_RING_SHEEN_200.0" cx="0" cy="0" rx="200.0" ry="200.0" fill="none" stroke="url(#svg342edd46-orbit-ring-sheen)" stroke-width="4" opacity="0.42"/>
    <ellipse cx="0" cy="0" rx="300.0" ry="300.0" fill="none" stroke="var(--muted-text)" stroke-width="2" stroke-dasharray="6 3" opacity="0.3"/>
    <ellipse id="ORBIT_ART_RING_SHEEN_300.0" cx="0" cy="0" rx="300.0" ry="300.0" fill="none" stroke="url(#svg342edd46-orbit-ring-sheen)" stroke-width="4" opacity="0.42"/>
    <ellipse cx="0" cy="0" rx="400.0" ry="400.0" fill="none" stroke="var(--muted-text)" stroke-width="2" stroke-dasharray="6 3" opacity="0.3"/>
    <ellipse id="ORBIT_ART_RING_SHEEN_400.0" cx="0" cy="0" rx="400.0" ry="400.0" fill="none" stroke="url(#svg342edd46-orbit-ring-sheen)" stroke-width="4" opacity="0.42"/>
    <circle r="90" fill="var(--panel)" stroke="var(--primary-text)" stroke-width="4"/>
    <rect id="ITEM_1_TEXT_BG" x="-168" y="91" width="416" height="202" rx="22" fill="var(--panel)" fill-opacity="0.94" stroke="var(--accent-1)" stroke-width="2"/>
    <text id="ITEM_1_HEAD" y="105.0" text-anchor="middle" font-weight="bold" font-size="28" fill="var(--primary-text)" data-bg-id="ITEM_1_TEXT_BG" fill-opacity="1.0" x="0.0" style="font-size: 30px; font-family: Inter, Segoe UI, Kalam, Roboto, Helvetica, Arial, sans-serif; font-weight: 700; letter-spacing:-0.4px;" data-final-font-size="30">
      <tspan x="0.0" dy="28.25px">Industrial Corridor</tspan>
    </text>
    <rect id="ITEM_1_HEAD_FRAME" x="-150" y="105" width="300" height="40" fill="none"/>
    <text id="ITEM_1_BODY" y="155.0" text-anchor="middle" font-size="18" fill="var(--primary-text)" style="font-size: 26px; font-family: Inter, Segoe UI, Kalam, Roboto, Helvetica, Arial, sans-serif; font-weight: 400;" data-bg-id="ITEM_1_TEXT_BG" x="40.0" data-final-font-size="26">
      <tspan x="40.0" dy="26.86px">Both towns shared a single</tspan>
      <tspan x="40.0" dy="29.90px">northern Italian</tspan>
      <tspan x="40.0" dy="29.90px">aviation district</tspan>
    </text>
    <rect id="ITEM_1_BODY_FRAME" x="-150" y="155" width="380" height="120" fill="none"/>
    <circle id="ORBIT_ART_ICON_AURA_1" r="76" fill="url(#svg342edd46-universal-icon-aura)" opacity="0.80"/>
    <circle id="ITEM_1_PAD" cx="0" cy="0" r="60" fill="var(--icon-pad-bg)" stroke="var(--primary-text)" opacity="0.9" fill-opacity="0.9" stroke-width="2"/>
    <circle id="ITEM_1_PAD_INNER" cx="0" cy="0" r="46.80" fill="var(--accent-5)" fill-opacity="0.22"/>
    <circle cx="0" cy="0" r="48.0" fill="none" stroke="var(--accent-1)" stroke-width="3" stroke-dasharray="6 4"/>
    <g id="ITEM_1_ICON" transform="translate(-45, -45)" data-icon-size="90" stroke-dasharray="6 4">
      <g transform="translate(-1.8000000000000043,0.028124999999995737) scale(3.9000000000000004)" vector-effect="non-scaling-stroke" fill="#f1f5f9" fill-opacity="1.0" stroke="none">
        <path fill="#f1f5f9" d="M8.4 18.2q.6.75.6 1.8c0 1.7-1.3 3-3 3s-3-1.3-3-3s1.3-3 3-3q.6 0 1.2.3l1.4-1.8c-.9-1-1.3-2.4-1.1-3.7l-2-.7c-.5.8-1.4 1.4-2.5 1.4c-1.7 0-3-1.3-3-3s1.3-3 3-3s3 1.3 3 3v.2l2 .7c.6-1.2 1.8-2.1 3.2-2.3V5.9C10 5.6 9 4.4 9 3c0-1.7 1.3-3 3-3s3 1.3 3 3c0 1.4-1 2.6-2.2 2.9v2.2c1.4.2 2.6 1.1 3.2 2.3l2-.7v-.2c0-1.7 1.3-3 3-3s3 1.3 3 3s-1.3 3-3 3c-1.1 0-2-.6-2.5-1.4l-2 .7c.2 1.3-.2 2.7-1.1 3.7l1.4 1.8q.6-.3 1.2-.3c1.7 0 3 1.3 3 3s-1.3 3-3 3s-3-1.3-3-3q0-1.05.6-1.8l-1.4-1.8c-1.4.8-3 .8-4.4 0z" vector-effect="non-scaling-stroke" stroke="none"/>
      </g>
    </g>
    <!-- ITEM_2 -->
    <g transform="translate(0, -200.0)">
      <circle id="ORBIT_ART_ICON_AURA_2" r="76" fill="url(#svg342edd46-universal-icon-aura)" opacity="0.80"/>
      <circle id="ITEM_2_PAD" r="58" fill="var(--icon-pad-bg)" stroke="var(--primary-text)" opacity="0.9" fill-opacity="0.9" stroke-width="2"/>
      <circle id="ITEM_2_PAD_INNER" cx="0" cy="0" r="45.24" fill="var(--accent-6)" fill-opacity="0.22"/>
      <circle r="50" fill="none" stroke="var(--accent-2)" stroke-width="3" stroke-dasharray="6 4"/>
      <g id="ITEM_2_ICON" transform="translate(-32.5, -32.5)" data-icon-size="65" stroke-dasharray="6 4">
        <g transform="translate(-21.117777777777782,-21.117777777777782) scale(4.468148148148148)" vector-effect="non-scaling-stroke" stroke-width="2.49" stroke-linecap="round" stroke-linejoin="round" stroke-opacity="1.0">
          <path d="M6 21h6" vector-effect="non-scaling-stroke" fill="none" stroke="#f1f5f9"/>
          <path d="M9 21v-18l-6 6h18" vector-effect="non-scaling-stroke" fill="none" stroke="#f1f5f9"/>
          <path d="M9 3l10 6" vector-effect="non-scaling-stroke" fill="none" stroke="#f1f5f9"/>
          <path d="M17 9v4a2 2 0 1 1 -2 2" vector-effect="non-scaling-stroke" fill="none" stroke="#f1f5f9"/>
        </g>
      </g>
      <rect id="ITEM_2_TEXT_BG" x="62" y="-64" width="416" height="202" rx="22" fill="var(--panel)" fill-opacity="0.94" stroke="var(--accent-2)" stroke-width="2"/>
      <text id="ITEM_2_HEAD" x="80.0" y="-50.0" text-anchor="start" font-weight="bold" font-size="24" fill="var(--accent-6)" style="font-size: 30px; font-family: Inter, Segoe UI, Kalam, Roboto, Helvetica, Arial, sans-serif; font-weight: 700; letter-spacing:-0.4px;" data-bg-id="ITEM_2_TEXT_BG" fill-opacity="1.0" data-final-font-size="30">
        <tspan x="80.0" dy="28.25px">Vergiate Dominance</tspan>
      </text>
      <rect id="ITEM_2_HEAD_FRAME" x="80" y="-50" width="300" height="40" fill="none"/>
      <text id="ITEM_2_BODY" x="80.0" y="0.0" text-anchor="start" font-size="18" fill="var(--primary-text)" style="font-size: 26px; font-family: Inter, Segoe UI, Kalam, Roboto, Helvetica, Arial, sans-serif; font-weight: 400;" data-bg-id="ITEM_2_TEXT_BG" data-final-font-size="26">
        <tspan x="80.0" dy="32.84px">Preferred in narratives due to</tspan>
        <tspan x="80.0" dy="29.90px">large manufacturing facilities</tspan>
      </text>
      <rect id="ITEM_2_BODY_FRAME" x="80" y="0" width="380" height="120" fill="none"/>
    </g>
    <g transform="translate(300.0, 0.0)">
      <circle id="ORBIT_ART_ICON_AURA_3" r="76" fill="url(#svg342edd46-universal-icon-aura)" opacity="0.80"/>
      <circle id="ITEM_3_PAD" r="58" fill="var(--icon-pad-bg)" stroke="var(--primary-text)" opacity="0.9" fill-opacity="0.9" stroke-width="2"/>
      <circle id="ITEM_3_PAD_INNER" cx="0" cy="0" r="45.24" fill="var(--accent-1)" fill-opacity="0.22"/>
      <circle r="50" fill="none" stroke="var(--accent-3)" stroke-width="3" stroke-dasharray="6 4"/>
      <g id="ITEM_3_ICON" transform="translate(-32.5, -32.5)" data-icon-size="65" stroke-dasharray="6 4">
        <g transform="translate(-16.573898305084747,-16.57389830508475) scale(4.089491525423729)" vector-effect="non-scaling-stroke" stroke-width="2.49" stroke-linecap="round" stroke-linejoin="round" stroke-opacity="1.0">
          <path d="M12 13v8" vector-effect="non-scaling-stroke" fill="none" stroke="#f1f5f9"/>
          <path d="M12 3v3" vector-effect="non-scaling-stroke" fill="none" stroke="#f1f5f9"/>
          <path d="M18 6a2 2 0 0 1 1.387.56l2.307 2.22a1 1 0 0 1 0 1.44l-2.307 2.22A2 2 0 0 1 18 13H6a2 2 0 0 1-1.387-.56l-2.306-2.22a1 1 0 0 1 0-1.44l2.306-2.22A2 2 0 0 1 6 6z" vector-effect="non-scaling-stroke" fill="none" stroke="#f1f5f9"/>
        </g>
      </g>
      <rect id="ITEM_3_TEXT_BG" x="62" y="-64" width="416" height="202" rx="22" fill="var(--panel)" fill-opacity="0.94" stroke="var(--accent-3)" stroke-width="2"/>
      <text id="ITEM_3_HEAD" x="80.0" y="-50.0" text-anchor="start" font-weight="bold" font-size="24" fill="var(--primary-text)" style="font-size: 30px; font-family: Inter, Segoe UI, Kalam, Roboto, Helvetica, Arial, sans-serif; font-weight: 700; letter-spacing:-0.4px;" data-bg-id="ITEM_3_TEXT_BG" fill-opacity="1.0" data-final-font-size="30">
        <tspan x="80.0" dy="28.25px">Sesto Calende Roots</tspan>
      </text>
      <rect id="ITEM_3_HEAD_FRAME" x="80" y="-50" width="300" height="40" fill="none"/>
      <text id="ITEM_3_BODY" x="80.0" y="0.0" text-anchor="start" font-size="18" fill="var(--primary-text)" style="font-size: 26px; font-family: Inter, Segoe UI, Kalam, Roboto, Helvetica, Arial, sans-serif; font-weight: 400;" data-bg-id="ITEM_3_TEXT_BG" data-final-font-size="26">
        <tspan x="80.0" dy="32.84px">Original 1915 headquarters</tspan>
        <tspan x="80.0" dy="29.90px">and primary engineering base</tspan>
      </text>
      <rect id="ITEM_3_BODY_FRAME" x="80" y="0" width="380" height="120" fill="none"/>
    </g>
    <g transform="translate(0, 300.0)">
      <circle id="ORBIT_ART_ICON_AURA_4" r="76" fill="url(#svg342edd46-universal-icon-aura)" opacity="0.80"/>
      <circle id="ITEM_4_PAD" r="58" fill="var(--icon-pad-bg)" stroke="var(--primary-text)" opacity="0.9" fill-opacity="0.9" stroke-width="2"/>
      <circle id="ITEM_4_PAD_INNER" cx="0" cy="0" r="45.24" fill="var(--accent-2)" fill-opacity="0.22"/>
      <circle r="50" fill="none" stroke="var(--accent-4)" stroke-width="3" stroke-dasharray="6 4"/>
      <g id="ITEM_4_ICON" transform="translate(-32.5, -32.5)" data-icon-size="65" fill="none" stroke="var(--accent-4)" stroke-width="2.5" stroke-dasharray="6 4">
        <circle cx="32.5" cy="32.5" r="26.0" fill="none" stroke="var(--accent-2)" stroke_width="2" opacity="0.5"/>
      </g>
      <rect id="ITEM_4_TEXT_BG" x="62" y="-64" width="416" height="202" rx="22" fill="var(--panel)" fill-opacity="0.94" stroke="var(--accent-4)" stroke-width="2"/>
      <text id="ITEM_4_HEAD" x="80.0" y="-50.0" text-anchor="start" font-weight="bold" font-size="24" fill="var(--accent-2)" style="font-size: 30px; font-family: Inter, Segoe UI, Kalam, Roboto, Helvetica, Arial, sans-serif; font-weight: 700; letter-spacing:-0.4px;" data-bg-id="ITEM_4_TEXT_BG" fill-opacity="1.0" data-final-font-size="30">
        <tspan x="80.0" dy="28.25px">Narrative Blurring</tspan>
      </text>
      <rect id="ITEM_4_HEAD_FRAME" x="80" y="-50" width="300" height="40" fill="none"/>
      <text id="ITEM_4_BODY" x="80.0" y="0.0" text-anchor="start" font-size="18" fill="var(--primary-text)" style="font-size: 26px; font-family: Inter, Segoe UI, Kalam, Roboto, Helvetica, Arial, sans-serif; font-weight: 400;" data-bg-id="ITEM_4_TEXT_BG" data-final-font-size="26">
        <tspan x="80.0" dy="32.84px">Writers often use the names</tspan>
        <tspan x="80.0" dy="29.90px">interchangeably in stories</tspan>
      </text>
      <rect id="ITEM_4_BODY_FRAME" x="80" y="0" width="380" height="120" fill="none"/>
    </g>
    <g transform="translate(-400.0, 0)">
      <circle id="ORBIT_ART_ICON_AURA_5" r="76" fill="url(#svg342edd46-universal-icon-aura)" opacity="0.80"/>
      <circle id="ITEM_5_PAD" r="58" fill="var(--icon-pad-bg)" stroke="var(--primary-text)" opacity="0.9" fill-opacity="0.9" stroke-width="2"/>
      <circle id="ITEM_5_PAD_INNER" cx="0" cy="0" r="45.24" fill="var(--accent-3)" fill-opacity="0.22"/>
      <circle r="50" fill="none" stroke="var(--accent-5)" stroke-width="3" stroke-dasharray="6 4"/>
      <g id="ITEM_5_ICON" transform="translate(-32.5, -32.5)" data-icon-size="65" stroke-dasharray="6 4">
        <g transform="translate(-12.740000000000002,-12.740000000000002) scale(6.4628571428571435)" vector-effect="non-scaling-stroke" stroke-width="2.49" stroke-linecap="round" stroke-linejoin="round" stroke-opacity="1.0">
          <path id="Vector" fill="none" d="M6 11.5a5.5 5.5 0 1 0 0 -11 5.5 5.5 0 0 0 0 11Z" vector-effect="non-scaling-stroke" stroke="#f1f5f9"/>
          <path id="Vector_2" stroke="#f1f5f9" d="M6 11.5a5.5 5.5 0 1 0 0 -11 5.5 5.5 0 0 0 0 11Z" vector-effect="non-scaling-stroke" fill="none"/>
          <path id="Vector_3" stroke="#f1f5f9" d="M13.5 13.5 10 10" vector-effect="non-scaling-stroke" fill="none"/>
        </g>
      </g>
      <rect id="ITEM_5_TEXT_BG" x="-478" y="-64" width="416" height="202" rx="22" fill="var(--panel)" fill-opacity="0.94" stroke="var(--accent-5)" stroke-width="2"/>
      <text id="ITEM_5_HEAD" x="-80.0" y="-50.0" text-anchor="end" font-weight="bold" font-size="24" fill="var(--primary-text)" style="font-size: 30px; font-family: Inter, Segoe UI, Kalam, Roboto, Helvetica, Arial, sans-serif; font-weight: 700; letter-spacing:-0.4px;" data-bg-id="ITEM_5_TEXT_BG" fill-opacity="1.0" data-final-font-size="30">
        <tspan x="-80.0" dy="28.25px">Inferential Logic</tspan>
      </text>
      <rect id="ITEM_5_HEAD_FRAME" x="-380" y="-50" width="300" height="40" fill="none"/>
      <text id="ITEM_5_BODY" x="-80.0" y="0.0" text-anchor="end" font-size="18" fill="var(--primary-text)" style="font-size: 26px; font-family: Inter, Segoe UI, Kalam, Roboto, Helvetica, Arial, sans-serif; font-weight: 400;" data-bg-id="ITEM_5_TEXT_BG" data-final-font-size="26">
        <tspan x="-80.0" dy="32.84px">Choice of site relies on</tspan>
        <tspan x="-80.0" dy="29.90px">plausibility rather than facts</tspan>
      </text>
      <rect id="ITEM_5_BODY_FRAME" x="-460" y="0" width="380" height="120" fill="none"/>
    </g>
  </g>
</svg>
