<?xml version='1.0' encoding='utf-8'?>
<svg xmlns="http://www.w3.org/2000/svg" width="1920" height="1080" viewBox="0 0 1920 1080" data-theme="light">
  <style>
        @font-face {
            font-family: 'Inter';
            src: url('assets/fonts/Inter-Regular.ttf') format('truetype');
            font-weight: 400;
            font-style: normal;
            font-display: swap;
        }
        @font-face {
            font-family: 'Inter';
            src: url('assets/fonts/Inter-Bold.ttf') format('truetype');
            font-weight: 600;
            font-style: normal;
            font-display: swap;
        }
        @font-face {
            font-family: 'Inter';
            src: url('assets/fonts/Inter-Bold.ttf') format('truetype');
            font-weight: 800;
            font-style: normal;
            font-display: swap;
        }
        
:root {
    --background: #f8fafc;
    --panel: #ffffff;
    --primary-text: #0f172a;
    --muted-text: #64748b;
    --inverse-text: #ffffff;
    --border: #e2e8f0;
    --shadow-color: #000000;
    --icon-pad-bg: #1e293b;
    --art-glow: #0891b2;
    --art-glow-opacity: 0.10;
    --art-sheen: #ffffff;
    --art-sheen-opacity: 0.34;
    --art-shadow: #0f172a;
    --art-shadow-opacity: 0.14;
    --art-muted-line: #94a3b8;
    --art-panel-tint: #f1f5f9;
    --font-family: 'Inter', 'Segoe UI', 'Kalam', Roboto, Helvetica, Arial, sans-serif;
    --radius-xl: 16px;
    --font-family-headline: 'Inter', 'Segoe UI', 'Kalam', Roboto, Helvetica, Arial, sans-serif;
    --font-family-body: 'Inter', 'Segoe UI', 'Kalam', Roboto, Helvetica, Arial, sans-serif;
    --font-heading: 'Inter', 'Segoe UI', 'Kalam', Roboto, Helvetica, Arial, sans-serif;
    --font-body: 'Inter', 'Segoe UI', 'Kalam', Roboto, Helvetica, Arial, sans-serif;
    --font-size-h1: 56px;
    --font-size-h2: 40px;
    --font-size-h3: 28px;
    --font-size-body: 24px;
    --font-size-caption: 18px;
    --secondary-text: var(--muted-text);
    --panel-border: var(--border);
    --font-weight-normal: 400;
    --font-weight-medium: 500;
    --font-weight-semibold: 600;
    --font-weight-bold: 700;
    --spacing-gutter-pct: 0.07;
    --spacing-top-pct: 0.15;
    --spacing-bottom-pct: 0.07;
    --spacing-title-y-pct: 0.055;
    --accent-1: #0891b2;
    --accent-2: #0284c7;
    --accent-3: #2563eb;
    --accent-4: #4f46e5;
    --accent-5: #7c3aed;
    --accent-6: #0d9488;
}
:root[data-theme="dark"] {
    --background: #0f172a;
    --panel: #1e293b;
    --primary-text: #f1f5f9;
    --muted-text: #94a3b8;
    --inverse-text: #0f172a;
    --border: #334155;
    --shadow-color: #000000;
    --icon-pad-bg: #1e293b;
    --art-glow: #7dd3fc;
    --art-glow-opacity: 0.18;
    --art-sheen: #ffffff;
    --art-sheen-opacity: 0.18;
    --art-shadow: #000000;
    --art-shadow-opacity: 0.28;
    --art-muted-line: #64748b;
    --art-panel-tint: #1e293b;
    --accent-1: #22d3ee;
    --accent-2: #38bdf8;
    --accent-3: #60a5fa;
    --accent-4: #818cf8;
    --accent-5: #a78bfa;
    --accent-6: #2dd4bf;
}
:root[data-theme="light"] {
    --background: #f8fafc;
    --panel: #ffffff;
    --primary-text: #0f172a;
    --muted-text: #64748b;
    --inverse-text: #ffffff;
    --border: #e2e8f0;
    --shadow-color: #000000;
    --icon-pad-bg: #1e293b;
    --art-glow: #0891b2;
    --art-glow-opacity: 0.10;
    --art-sheen: #ffffff;
    --art-sheen-opacity: 0.34;
    --art-shadow: #0f172a;
    --art-shadow-opacity: 0.14;
    --art-muted-line: #94a3b8;
    --art-panel-tint: #f1f5f9;
    --accent-1: #0891b2;
    --accent-2: #0284c7;
    --accent-3: #2563eb;
    --accent-4: #4f46e5;
    --accent-5: #7c3aed;
    --accent-6: #0d9488;
}</style>
  <rect x="0" y="0" width="1.92E+3" height="1.08E+3" fill="#252a34" stroke="none" id="programmatic_background"/>
  <line id="HEADER_DECOR" x1="960.0" x2="1080.0" y1="75.0" y2="75.0" stroke="var(--accent-1)" stroke-width="6" stroke-linecap="round"/>
  <defs>
    <filter id="svg6e40bc4f-neon-glow" x="-50%" y="-50%" width="200%" height="200%">
      <feGaussianBlur stdDeviation="6" result="blur"/>
      <feComposite in="SourceGraphic" in2="blur" operator="over"/>
    </filter>
    <radialGradient id="svg6e40bc4f-universal-edge-vignette" cx="50%" cy="50%" r="72%">
      <stop offset="0%" stop-color="var(--background)" stop-opacity="0"/>
      <stop offset="72%" stop-color="var(--background)" stop-opacity="0.12"/>
      <stop offset="100%" stop-color="var(--primary-text)" stop-opacity="0.08"/>
    </radialGradient>
    <linearGradient id="svg6e40bc4f-universal-surface-sheen" x1="0%" y1="0%" x2="100%" y2="100%">
      <stop offset="0%" stop-color="var(--art-sheen)" stop-opacity="var(--art-sheen-opacity)"/>
      <stop offset="46%" stop-color="var(--art-sheen)" stop-opacity="0.035"/>
      <stop offset="100%" stop-color="var(--art-panel-tint)" stop-opacity="0.14"/>
    </linearGradient>
    <radialGradient id="svg6e40bc4f-universal-icon-aura" cx="50%" cy="42%" r="64%">
      <stop offset="0%" stop-color="var(--art-glow)" stop-opacity="var(--art-glow-opacity)"/>
      <stop offset="100%" stop-color="var(--background)" stop-opacity="0"/>
    </radialGradient>
    <radialGradient id="svg6e40bc4f-tree-roots-art-glow" cx="50%" cy="52%" r="68%">
      <stop offset="0%" stop-color="var(--inverse-text)" stop-opacity="0.14"/>
      <stop offset="100%" stop-color="var(--background)" stop-opacity="0"/>
    </radialGradient>
    <linearGradient id="svg6e40bc4f-tree-roots-art-sheen" x1="16%" y1="0%" x2="86%" y2="100%">
      <stop offset="0%" stop-color="var(--inverse-text)" stop-opacity="0.22"/>
      <stop offset="52%" stop-color="var(--inverse-text)" stop-opacity="0.035"/>
      <stop offset="100%" stop-color="var(--background)" stop-opacity="0.14"/>
    </linearGradient>
    <filter id="svg6e40bc4f-text-glow" x="-20%" y="-20%" width="140%" height="140%">
      <feDropShadow dx="0" dy="0" stdDeviation="2" flood-color="#000000" flood-opacity="0.4"/>
    </filter>
    <filter id="svg6e40bc4f-shadow" x="-30%" y="-30%" width="160%" height="160%">
      <feDropShadow dx="0" dy="2" stdDeviation="3" flood-color="#000000" flood-opacity="0.08"/>
      <feDropShadow dx="0" dy="6" stdDeviation="10" flood-color="#000000" flood-opacity="0.12"/>
    </filter>
    <marker id="svg6e40bc4f-arrowhead" markerWidth="10" markerHeight="7" refX="9" refY="3.5" orient="auto" markerUnits="strokeWidth">
      <polygon points="0 0, 10 3.5, 0 7" fill="var(--muted-text)" opacity="0.6"/>
    </marker>
  </defs>
  <rect width="100%" height="100%" fill="var(--background)" id="CANVAS_BG"/>
  <ellipse id="TREE-ROOTS_ART_GLOW" cx="960" cy="600" rx="720" ry="390" fill="url(#svg6e40bc4f-tree-roots-art-glow)" opacity="0.90"/>
  <rect id="UNIVERSAL_EDGE_VIGNETTE" width="100%" height="100%" fill="url(#svg6e40bc4f-universal-edge-vignette)" opacity="0.62"/>
  <!-- Subtle dirt/background texture behind roots -->
  <rect x="0" y="280" width="1920" height="800" fill="var(--primary-text)" opacity="0.04"/>
  <g transform="translate(0, 0)">
    <!-- Ground Line -->
    <path d="M 0 280 L 1920 280" fill="none" stroke="var(--primary-text)" stroke-width="4" stroke-dasharray="10 20" opacity="0.3"/>
    <!-- Tree Canopy -->
    <g id="TREE_CANOPY" opacity="0.58">
      <circle cx="900.0" cy="210" r="70" fill="var(--panel)" stroke="var(--primary-text)" stroke-width="2"/>
      <circle cx="1020.0" cy="210" r="70" fill="var(--panel)" stroke="var(--primary-text)" stroke-width="2"/>
      <circle cx="960.0" cy="190" r="80" fill="var(--panel)" stroke="var(--primary-text)" stroke-width="2"/>
      <circle cx="960.0" cy="160" r="40" fill="var(--panel)" stroke="var(--primary-text)" stroke-width="2"/>
    </g>
    <!-- Tree Trunk -->
    <path d="M 910.0 280 C 910.0 235, 895.0 190, 900.0 140 L 1020.0 140 C 1025.0 190, 1010.0 235, 1010.0 280 Z" fill="var(--panel)" stroke="var(--primary-text)" stroke-width="2" filter="url(#svg6e40bc4f-neon-glow)"/>
    <!-- Trunk abstract rings -->
    <ellipse cx="960.0" cy="242" rx="34.0" ry="44" fill="none" stroke="var(--background)" stroke-width="6" opacity="0.3"/>
    <rect id="TITLE_FRAME" x="660.0" y="20" width="600" height="80" fill="none"/>
    <text id="TITLE" x="960.0" y="59" font-size="34" font-weight="900" fill="#0f172a" text-anchor="middle" alignment-baseline="middle" style="font-size: 60px; font-family: Inter, Segoe UI, Kalam, Roboto, Helvetica, Arial, sans-serif; font-weight: 700; letter-spacing:-1.2px;" data-final-font-size="60">
      <tspan x="960.0" dy="68.00px">Foundations of the Magenta Narrative</tspan>
    </text>
  </g>
  <g transform="translate(0, 0)">
    <!-- Root Core Line -->
    <path d="M 900.0 280 C 812.0 400.0, 548.0 420.0, 460.0 480" fill="none" stroke="var(--accent-1)" stroke-width="10" stroke-linecap="round" filter="url(#svg6e40bc4f-neon-glow)" opacity="0.9"/>
    <path d="M 900.0 280 C 812.0 400.0, 548.0 420.0, 460.0 480" fill="none" stroke="var(--background)" stroke-width="4" stroke-linecap="round"/>
    <!-- Secondary stylistic root tendril -->
    <path d="M 900.0 280 C 804.0 376.0, 516.0 392.0, 420.0 440" fill="none" stroke="var(--accent-1)" stroke-width="3" filter="url(#svg6e40bc4f-neon-glow)" opacity="0.45"/>
    <!-- Deep Root Terminal -->
    <circle cx="460.0" cy="480" r="53" fill="none" stroke="var(--accent-1)" stroke-width="2" stroke-dasharray="8 4" opacity="0.6"/>
    <circle cx="460.0" cy="480" r="45" fill="var(--panel)" stroke="var(--accent-1)" stroke-width="4" filter="url(#svg6e40bc4f-neon-glow)"/>
    <circle id="ITEM_1_PAD" cx="460.00" cy="480.00" r="40.00" fill="var(--icon-pad-bg)" stroke="var(--primary-text)" stroke-width="2" opacity="0.9"/>
    <circle id="ITEM_1_PAD_INNER" cx="460.00" cy="480.00" r="31.20" fill="var(--accent-1)" fill-opacity="0.22"/>
    <g id="ITEM_1_ICON" transform="translate(435.0, 455)" data-icon-size="50" stroke-dasharray="6 4">
      <g transform="translate(-8.844067796610172,-8.844067796610176) scale(2.820338983050848)" vector-effect="non-scaling-stroke" stroke-width="2.31" stroke-linecap="round" stroke-linejoin="round" stroke-opacity="1.0">
        <path d="M22 17a2 2 0 0 1-2 2H4a2 2 0 0 1-2-2V9.5C2 7 4 5 6.5 5H18c2.2 0 4 1.8 4 4v8Z" vector-effect="non-scaling-stroke" fill="none" stroke="#f1f5f9"/>
        <polyline points="15,9 18,9 18,11" vector-effect="non-scaling-stroke" fill="none" stroke="#f1f5f9"/>
        <path d="M6.5 5C9 5 11 7 11 9.5V17a2 2 0 0 1-2 2" vector-effect="non-scaling-stroke" fill="none" stroke="#f1f5f9"/>
        <line x1="6" x2="7" y1="10" y2="10" vector-effect="non-scaling-stroke" fill="none" stroke="#f1f5f9"/>
      </g>
    </g>
    <rect id="ITEM_1_TEXT_BG" x="37.0" y="414.0" width="376.0" height="222.0" rx="22" fill="var(--panel)" fill-opacity="0.97" stroke="var(--primary-text)" stroke-opacity="0.22" stroke-width="2.2"/>
    <text id="ITEM_1_HEAD" data-bg-id="ITEM_1_TEXT_BG" x="395.0" y="430.0" font-weight="bold" font-size="25" fill="var(--primary-text)" text-anchor="end" fill-opacity="1.0" style="font-size: 30px; font-family: Inter, Segoe UI, Kalam, Roboto, Helvetica, Arial, sans-serif; font-weight: 700; letter-spacing:-0.4px;" data-final-font-size="30">
      <tspan x="395.0" dy="28.25px">Anonymous Mailings</tspan>
    </text>
    <rect id="ITEM_1_HEAD_FRAME" x="95.0" y="430" width="300" height="40" fill="none"/>
    <text id="ITEM_1_BODY" data-bg-id="ITEM_1_TEXT_BG" x="395.0" y="500.0" font-size="17" fill="var(--primary-text)" text-anchor="end" style="font-size: 26px; font-family: Inter, Segoe UI, Kalam, Roboto, Helvetica, Arial, sans-serif; font-weight: 400;" data-final-font-size="26">
      <tspan x="395.0" dy="32.84px">The primary source for all</tspan>
      <tspan x="395.0" dy="29.90px">modern public claims</tspan>
    </text>
    <rect id="ITEM_1_BODY_FRAME" x="55" y="500" width="340" height="120" fill="none"/>
  </g>
  <g transform="translate(0, 0)">
    <!-- Root Core Line -->
    <path d="M 930.0 280 C 886.0 550.0, 754.0 595.0, 710.0 730" fill="none" stroke="var(--accent-2)" stroke-width="10" stroke-linecap="round" filter="url(#svg6e40bc4f-neon-glow)" opacity="0.9"/>
    <path d="M 930.0 280 C 886.0 550.0, 754.0 595.0, 710.0 730" fill="none" stroke="var(--background)" stroke-width="4" stroke-linecap="round"/>
    <!-- Secondary stylistic root tendril -->
    <path d="M 930.0 280 C 878.0 526.0, 722.0 567.0, 670.0 690" fill="none" stroke="var(--accent-2)" stroke-width="3" filter="url(#svg6e40bc4f-neon-glow)" opacity="0.45"/>
    <!-- Deep Root Terminal -->
    <circle cx="710.0" cy="730" r="53" fill="none" stroke="var(--accent-2)" stroke-width="2" stroke-dasharray="8 4" opacity="0.6"/>
    <circle cx="710.0" cy="730" r="45" fill="var(--panel)" stroke="var(--accent-2)" stroke-width="4" filter="url(#svg6e40bc4f-neon-glow)"/>
    <circle id="ITEM_2_PAD" cx="710.00" cy="730.00" r="40.00" fill="var(--icon-pad-bg)" stroke="var(--primary-text)" stroke-width="2" opacity="0.9"/>
    <circle id="ITEM_2_PAD_INNER" cx="710.00" cy="730.00" r="31.20" fill="var(--accent-2)" fill-opacity="0.22"/>
    <g id="ITEM_2_ICON" transform="translate(685.0, 705)" data-icon-size="50" stroke-dasharray="6 4">
      <g transform="translate(-8.844067796610176,-8.844067796610172) scale(2.820338983050848)" vector-effect="non-scaling-stroke" stroke-width="2.31" stroke-linecap="round" stroke-linejoin="round" stroke-opacity="1.0">
        <path d="M14 13V8.5C14 7 15 7 15 5a3 3 0 0 0-6 0c0 2 1 2 1 3.5V13" vector-effect="non-scaling-stroke" fill="none" stroke="#f1f5f9"/>
        <path d="M20 15.5a2.5 2.5 0 0 0-2.5-2.5h-11A2.5 2.5 0 0 0 4 15.5V17a1 1 0 0 0 1 1h14a1 1 0 0 0 1-1z" vector-effect="non-scaling-stroke" fill="none" stroke="#f1f5f9"/>
        <path d="M5 22h14" vector-effect="non-scaling-stroke" fill="none" stroke="#f1f5f9"/>
      </g>
    </g>
    <rect id="ITEM_2_TEXT_BG" x="247.0" y="664.0" width="416.0" height="222.0" rx="22" fill="var(--panel)" fill-opacity="0.97" stroke="var(--primary-text)" stroke-opacity="0.22" stroke-width="2.2"/>
    <text id="ITEM_2_HEAD" data-bg-id="ITEM_2_TEXT_BG" x="645.0" y="680.0" font-weight="bold" font-size="25" fill="var(--primary-text)" text-anchor="end" fill-opacity="1.0" style="font-size: 30px; font-family: Inter, Segoe UI, Kalam, Roboto, Helvetica, Arial, sans-serif; font-weight: 700; letter-spacing:-0.4px;" data-final-font-size="30">
      <tspan x="645.0" dy="28.25px">Fascist Telegrams</tspan>
    </text>
    <rect id="ITEM_2_HEAD_FRAME" x="325.0" y="680" width="320" height="40" fill="none"/>
    <text id="ITEM_2_BODY" data-bg-id="ITEM_2_TEXT_BG" x="645.0" y="750.0" font-size="17" fill="var(--primary-text)" text-anchor="end" style="font-size: 26px; font-family: Inter, Segoe UI, Kalam, Roboto, Helvetica, Arial, sans-serif; font-weight: 400;" data-final-font-size="26">
      <tspan x="645.0" dy="26.86px">Internal communications</tspan>
      <tspan x="645.0" dy="29.90px">regarding the alleged</tspan>
      <tspan x="645.0" dy="29.90px">craft recovery</tspan>
    </text>
    <rect id="ITEM_2_BODY_FRAME" x="265" y="750" width="380" height="120" fill="none"/>
  </g>
  <g transform="translate(0, 0)">
    <!-- Root Core Line -->
    <path d="M 960.0 280 C 960.0 670.0, 960.0 735.0, 960.0 930" fill="none" stroke="var(--accent-3)" stroke-width="10" stroke-linecap="round" filter="url(#svg6e40bc4f-neon-glow)" opacity="0.9"/>
    <path d="M 960.0 280 C 960.0 670.0, 960.0 735.0, 960.0 930" fill="none" stroke="var(--background)" stroke-width="4" stroke-linecap="round"/>
    <!-- Secondary stylistic root tendril -->
    <path d="M 960.0 280 C 952.0 646.0, 928.0 707.0, 920.0 890" fill="none" stroke="var(--accent-3)" stroke-width="3" filter="url(#svg6e40bc4f-neon-glow)" opacity="0.45"/>
    <!-- Deep Root Terminal -->
    <circle cx="960.0" cy="930" r="53" fill="none" stroke="var(--accent-3)" stroke-width="2" stroke-dasharray="8 4" opacity="0.6"/>
    <circle cx="960.0" cy="930" r="45" fill="var(--panel)" stroke="var(--accent-3)" stroke-width="4" filter="url(#svg6e40bc4f-neon-glow)"/>
    <circle id="ITEM_3_PAD" cx="960.00" cy="930.00" r="40.00" fill="var(--icon-pad-bg)" stroke="var(--primary-text)" stroke-width="2" opacity="0.9"/>
    <circle id="ITEM_3_PAD_INNER" cx="960.00" cy="930.00" r="31.20" fill="var(--accent-3)" fill-opacity="0.22"/>
    <g id="ITEM_3_ICON" transform="translate(935.0, 905)" data-icon-size="50" stroke-dasharray="6 4">
      <g transform="translate(-11.977777777777781,-11.977777777777781) scale(3.081481481481482)" vector-effect="non-scaling-stroke" stroke-width="2.31" stroke-linecap="round" stroke-linejoin="round" stroke-opacity="1.0">
        <path d="M12 3v18" vector-effect="non-scaling-stroke" fill="none" stroke="#f1f5f9"/>
        <rect width="18" height="18" x="3" y="3" rx="2" vector-effect="non-scaling-stroke" fill="none" stroke="#f1f5f9"/>
        <path d="M3 9h18" vector-effect="non-scaling-stroke" fill="none" stroke="#f1f5f9"/>
        <path d="M3 15h18" vector-effect="non-scaling-stroke" fill="none" stroke="#f1f5f9"/>
      </g>
    </g>
    <rect id="ITEM_3_TEXT_BG" x="532.0" y="824.0" width="356.0" height="210.0" rx="22" fill="var(--panel)" fill-opacity="0.97" stroke="var(--primary-text)" stroke-opacity="0.22" stroke-width="2.2"/>
    <text id="ITEM_3_HEAD" data-bg-id="ITEM_3_TEXT_BG" x="870.0" y="840.0" font-weight="bold" font-size="25" fill="var(--accent-3)" text-anchor="end" fill-opacity="1.0" style="font-size: 30px; font-family: Inter, Segoe UI, Kalam, Roboto, Helvetica, Arial, sans-serif; font-weight: 700; letter-spacing:-0.4px;" data-final-font-size="30">
      <tspan x="870.0" dy="28.25px">RS/33 Committee</tspan>
    </text>
    <rect id="ITEM_3_HEAD_FRAME" x="570.0" y="840" width="300" height="40" fill="none"/>
    <text id="ITEM_3_BODY" data-bg-id="ITEM_3_TEXT_BG" x="870.0" y="910.0" font-size="17" fill="var(--primary-text)" text-anchor="end" style="font-size: 26px; font-family: Inter, Segoe UI, Kalam, Roboto, Helvetica, Arial, sans-serif; font-weight: 400;" data-final-font-size="26">
      <tspan x="870.0" dy="22.06px">Supposed secret group</tspan>
      <tspan x="870.0" dy="29.90px">created for investigation</tspan>
      <tspan x="870.0" dy="29.90px">and secrecy</tspan>
    </text>
    <rect id="ITEM_3_BODY_FRAME" x="550" y="910" width="320" height="96" fill="none"/>
  </g>
  <g transform="translate(0, 0)">
    <!-- Root Core Line -->
    <path d="M 990.0 280 C 1034.0 550.0, 1166.0 595.0, 1210.0 730" fill="none" stroke="var(--accent-4)" stroke-width="10" stroke-linecap="round" filter="url(#svg6e40bc4f-neon-glow)" opacity="0.9"/>
    <path d="M 990.0 280 C 1034.0 550.0, 1166.0 595.0, 1210.0 730" fill="none" stroke="var(--background)" stroke-width="4" stroke-linecap="round"/>
    <!-- Secondary stylistic root tendril -->
    <path d="M 990.0 280 C 1042.0 526.0, 1198.0 567.0, 1250.0 690" fill="none" stroke="var(--accent-4)" stroke-width="3" filter="url(#svg6e40bc4f-neon-glow)" opacity="0.45"/>
    <!-- Deep Root Terminal -->
    <circle cx="1210.0" cy="730" r="53" fill="none" stroke="var(--accent-4)" stroke-width="2" stroke-dasharray="8 4" opacity="0.6"/>
    <circle cx="1210.0" cy="730" r="45" fill="var(--panel)" stroke="var(--accent-4)" stroke-width="4" filter="url(#svg6e40bc4f-neon-glow)"/>
    <circle id="ITEM_4_PAD" cx="1210.00" cy="730.00" r="40.00" fill="var(--icon-pad-bg)" stroke="var(--primary-text)" stroke-width="2" opacity="0.9"/>
    <circle id="ITEM_4_PAD_INNER" cx="1210.00" cy="730.00" r="31.20" fill="var(--accent-4)" fill-opacity="0.22"/>
    <g id="ITEM_4_ICON" transform="translate(1185.0, 705)" data-icon-size="50" stroke-dasharray="6 4">
      <g transform="translate(-8.844067796610172,-8.844067796610172) scale(2.820338983050848)" vector-effect="non-scaling-stroke" stroke-width="2.31" stroke-linecap="round" stroke-linejoin="round" stroke-opacity="1.0">
        <path d="M22 7.7c0-.6-.4-1.2-.8-1.5l-6.3-3.9a1.72 1.72 0 0 0-1.7 0l-10.3 6c-.5.2-.9.8-.9 1.4v6.6c0 .5.4 1.2.8 1.5l6.3 3.9a1.72 1.72 0 0 0 1.7 0l10.3-6c.5-.3.9-1 .9-1.5Z" vector-effect="non-scaling-stroke" fill="none" stroke="#f1f5f9"/>
        <path d="M10 21.9V14L2.1 9.1" vector-effect="non-scaling-stroke" fill="none" stroke="#f1f5f9"/>
        <path d="m10 14 11.9-6.9" vector-effect="non-scaling-stroke" fill="none" stroke="#f1f5f9"/>
        <path d="M14 19.8v-8.1" vector-effect="non-scaling-stroke" fill="none" stroke="#f1f5f9"/>
        <path d="M18 17.5V9.4" vector-effect="non-scaling-stroke" fill="none" stroke="#f1f5f9"/>
      </g>
    </g>
    <rect id="ITEM_4_TEXT_BG" x="1257.0" y="664.0" width="416.0" height="222.0" rx="22" fill="var(--panel)" fill-opacity="0.97" stroke="var(--primary-text)" stroke-opacity="0.22" stroke-width="2.2"/>
    <text id="ITEM_4_HEAD" data-bg-id="ITEM_4_TEXT_BG" x="1275.0" y="680.0" font-weight="bold" font-size="25" fill="var(--accent-4)" text-anchor="start" fill-opacity="1.0" style="font-size: 30px; font-family: Inter, Segoe UI, Kalam, Roboto, Helvetica, Arial, sans-serif; font-weight: 700; letter-spacing:-0.4px;" data-final-font-size="30">
      <tspan x="1275.0" dy="28.25px">Wartime Transfers</tspan>
    </text>
    <rect id="ITEM_4_HEAD_FRAME" x="1275.0" y="680" width="320" height="40" fill="none"/>
    <text id="ITEM_4_BODY" data-bg-id="ITEM_4_TEXT_BG" x="1275.0" y="750.0" font-size="17" fill="var(--primary-text)" text-anchor="start" style="font-size: 26px; font-family: Inter, Segoe UI, Kalam, Roboto, Helvetica, Arial, sans-serif; font-weight: 400;" data-final-font-size="26">
      <tspan x="1275.0" dy="32.84px">Claims regarding the movement</tspan>
      <tspan x="1275.0" dy="29.90px">of objects to American forces</tspan>
    </text>
    <rect id="ITEM_4_BODY_FRAME" x="1275" y="750" width="380" height="120" fill="none"/>
  </g>
  <g transform="translate(0, 0)">
    <!-- Root Core Line -->
    <path d="M 1020.0 280 C 1108.0 400.0, 1372.0 420.0, 1460.0 480" fill="none" stroke="var(--accent-5)" stroke-width="10" stroke-linecap="round" filter="url(#svg6e40bc4f-neon-glow)" opacity="0.9"/>
    <path d="M 1020.0 280 C 1108.0 400.0, 1372.0 420.0, 1460.0 480" fill="none" stroke="var(--background)" stroke-width="4" stroke-linecap="round"/>
    <!-- Secondary stylistic root tendril -->
    <path d="M 1020.0 280 C 1116.0 376.0, 1404.0 392.0, 1500.0 440" fill="none" stroke="var(--accent-5)" stroke-width="3" filter="url(#svg6e40bc4f-neon-glow)" opacity="0.45"/>
    <!-- Deep Root Terminal -->
    <circle cx="1460.0" cy="480" r="53" fill="none" stroke="var(--accent-5)" stroke-width="2" stroke-dasharray="8 4" opacity="0.6"/>
    <circle cx="1460.0" cy="480" r="45" fill="var(--panel)" stroke="var(--accent-5)" stroke-width="4" filter="url(#svg6e40bc4f-neon-glow)"/>
    <circle id="ITEM_5_PAD" cx="1460.00" cy="480.00" r="40.00" fill="var(--icon-pad-bg)" stroke="var(--primary-text)" stroke-width="2" opacity="0.9"/>
    <circle id="ITEM_5_PAD_INNER" cx="1460.00" cy="480.00" r="31.20" fill="var(--accent-5)" fill-opacity="0.22"/>
    <g id="ITEM_5_ICON" transform="translate(1435.0, 455)" data-icon-size="50" stroke-dasharray="6 4">
      <g transform="translate(-10.65714285714286,-20.685714285714287) scale(2.2285714285714286)">
        <path d="M5.5 11C5.22386 11 5 11.2239 5 11.5V13H9V11.5C9 11.2239 8.77614 11 8.5 11H5.5Z" fill="#D3D3D3"/>
        <path d="M21.5 11C21.2239 11 21 11.2239 21 11.5V13H27V11.5C27 11.2239 26.7761 11 26.5 11H21.5Z" fill="#D3D3D3"/>
        <path d="M2 14C2 12.8954 2.89543 12 4 12H28C29.1046 12 30 12.8954 30 14V16.5L28 22L30 27.5V28C30 29.1046 29.1046 30 28 30H4C2.89543 30 2 29.1046 2 28V27.5L3.5 22L2 16.5V14Z" fill="#E6E6E6"/>
        <path d="M2 16.5C2 16.2239 2.22386 16 2.5 16H29.5C29.7761 16 30 16.2239 30 16.5V27.5C30 27.7761 29.7761 28 29.5 28H2.5C2.22386 28 2 27.7761 2 27.5V16.5Z" fill="#533566"/>
        <path d="M22 22C22 25.3137 19.3137 28 16 28C12.6863 28 10 25.3137 10 22C10 18.6863 12.6863 16 16 16C19.3137 16 22 18.6863 22 22Z" fill="#321B41"/>
        <path d="M16 27C18.7614 27 21 24.7614 21 22C21 19.2386 18.7614 17 16 17C13.2386 17 11 19.2386 11 22C11 24.7614 13.2386 27 16 27ZM16 29C12.134 29 9 25.866 9 22C9 18.134 12.134 15 16 15C19.866 15 23 18.134 23 22C23 25.866 19.866 29 16 29Z" fill="#9B9B9B"/>
        <path d="M18.5 22C18.5 23.3807 17.3807 24.5 16 24.5C14.6193 24.5 13.5 23.3807 13.5 22C13.5 20.6193 14.6193 19.5 16 19.5C17.3807 19.5 18.5 20.6193 18.5 22Z" fill="#433B6B"/>
        <path d="M19.0825 19.875C19.4967 20.5924 19.4448 21.3979 18.9665 21.674C18.4882 21.9501 17.7647 21.5924 17.3505 20.875C16.9363 20.1575 16.9882 19.3521 17.4665 19.0759C17.9448 18.7998 18.6683 19.1575 19.0825 19.875Z" fill="white"/>
      </g>
    </g>
    <rect id="ITEM_5_TEXT_BG" x="1507.0" y="414.0" width="376.0" height="222.0" rx="22" fill="var(--panel)" fill-opacity="0.97" stroke="var(--primary-text)" stroke-opacity="0.22" stroke-width="2.2"/>
    <text id="ITEM_5_HEAD" data-bg-id="ITEM_5_TEXT_BG" x="1525.0" y="430.0" font-weight="bold" font-size="25" fill="var(--accent-5)" text-anchor="start" fill-opacity="1.0" style="font-size: 30px; font-family: Inter, Segoe UI, Kalam, Roboto, Helvetica, Arial, sans-serif; font-weight: 700; letter-spacing:-0.4px;" data-final-font-size="30">
      <tspan x="1525.0" dy="28.25px">Visual Reproductions</tspan>
    </text>
    <rect id="ITEM_5_HEAD_FRAME" x="1525.0" y="430" width="320" height="40" fill="none"/>
    <text id="ITEM_5_BODY" data-bg-id="ITEM_5_TEXT_BG" x="1525.0" y="500.0" font-size="17" fill="var(--primary-text)" text-anchor="start" style="font-size: 26px; font-family: Inter, Segoe UI, Kalam, Roboto, Helvetica, Arial, sans-serif; font-weight: 400;" data-final-font-size="26">
      <tspan x="1525.0" dy="26.86px">Researchers rely on</tspan>
      <tspan x="1525.0" dy="29.90px">photographs and published</tspan>
      <tspan x="1525.0" dy="29.90px">transcriptions</tspan>
    </text>
    <rect id="ITEM_5_BODY_FRAME" x="1525" y="500" width="340" height="120" fill="none"/>
  </g>
</svg>
